<svg width="18" height="18" viewBox="0 0 18 18" fill="none" xmlns="http://www.w3.org/2000/svg">
<path d="M9 0C13.9701 0 18 4.02991 18 9C18 13.9701 13.9701 18 9 18C4.02991 18 0 13.9701 0 9C0 4.02991 4.02991 0 9 0ZM9.64286 4.66071C9.64286 4.57232 9.57054 4.5 9.48214 4.5H8.51786C8.42946 4.5 8.35714 4.57232 8.35714 4.66071V10.125C8.35714 10.2134 8.42946 10.2857 8.51786 10.2857H9.48214C9.57054 10.2857 9.64286 10.2134 9.64286 10.125V4.66071ZM9 13.5C9.25234 13.4948 9.4926 13.391 9.66924 13.2107C9.84587 13.0304 9.9448 12.7881 9.9448 12.5357C9.9448 12.2833 9.84587 12.041 9.66924 11.8607C9.4926 11.6804 9.25234 11.5766 9 11.5714C8.74766 11.5766 8.5074 11.6804 8.33076 11.8607C8.15413 12.041 8.0552 12.2833 8.0552 12.5357C8.0552 12.7881 8.15413 13.0304 8.33076 13.2107C8.5074 13.391 8.74766 13.4948 9 13.5Z" fill="#EF9A9A"/>
</svg>
