<svg width="20" height="14" viewBox="0 0 20 14" fill="none" xmlns="http://www.w3.org/2000/svg">
<path d="M5.97 10L3 13C2.67 13.3 2.23 13.5 1.75 13.5C1.28587 13.5 0.840752 13.3156 0.512563 12.9874C0.184375 12.6592 0 12.2141 0 11.75V11.5L1 4.12C1.10081 2.99563 1.61834 1.94957 2.45096 1.18726C3.28358 0.424955 4.37112 0.00147856 5.5 0H14.5C16.86 0 18.79 1.81 19 4.12L20 11.5V11.75C20 12.2141 19.8156 12.6592 19.4874 12.9874C19.1592 13.3156 18.7141 13.5 18.25 13.5C17.77 13.5 17.33 13.3 17 13L14.03 10H5.97ZM5 2V4H3V5H5V7H6V5H8V4H6V2H5ZM14.5 2C14.3011 2 14.1103 2.07902 13.9697 2.21967C13.829 2.36032 13.75 2.55109 13.75 2.75C13.75 2.94891 13.829 3.13968 13.9697 3.28033C14.1103 3.42098 14.3011 3.5 14.5 3.5C14.6989 3.5 14.8897 3.42098 15.0303 3.28033C15.171 3.13968 15.25 2.94891 15.25 2.75C15.25 2.55109 15.171 2.36032 15.0303 2.21967C14.8897 2.07902 14.6989 2 14.5 2ZM12.75 3.75C12.5511 3.75 12.3603 3.82902 12.2197 3.96967C12.079 4.11032 12 4.30109 12 4.5C12 4.69891 12.079 4.88968 12.2197 5.03033C12.3603 5.17098 12.5511 5.25 12.75 5.25C12.9489 5.25 13.1397 5.17098 13.2803 5.03033C13.421 4.88968 13.5 4.69891 13.5 4.5C13.5 4.30109 13.421 4.11032 13.2803 3.96967C13.1397 3.82902 12.9489 3.75 12.75 3.75ZM16.25 3.75C16.0511 3.75 15.8603 3.82902 15.7197 3.96967C15.579 4.11032 15.5 4.30109 15.5 4.5C15.5 4.69891 15.579 4.88968 15.7197 5.03033C15.8603 5.17098 16.0511 5.25 16.25 5.25C16.4489 5.25 16.6397 5.17098 16.7803 5.03033C16.921 4.88968 17 4.69891 17 4.5C17 4.30109 16.921 4.11032 16.7803 3.96967C16.6397 3.82902 16.4489 3.75 16.25 3.75ZM14.5 5.5C14.3011 5.5 14.1103 5.57902 13.9697 5.71967C13.829 5.86032 13.75 6.05109 13.75 6.25C13.75 6.44891 13.829 6.63968 13.9697 6.78033C14.1103 6.92098 14.3011 7 14.5 7C14.6989 7 14.8897 6.92098 15.0303 6.78033C15.171 6.63968 15.25 6.44891 15.25 6.25C15.25 6.05109 15.171 5.86032 15.0303 5.71967C14.8897 5.57902 14.6989 5.5 14.5 5.5Z" fill="white"/>
</svg>
