<svg width="12" height="12" viewBox="0 0 12 12" fill="none" xmlns="http://www.w3.org/2000/svg">
<path d="M11.8516 5.08804L10.5103 4.68804C10.4175 4.36456 10.29 4.05208 10.1299 3.75604L10.7865 2.52805C10.8112 2.4817 10.8202 2.42864 10.8123 2.37676C10.8043 2.32488 10.7799 2.27694 10.7425 2.24005L9.78556 1.28005C9.74864 1.24272 9.70065 1.21828 9.64872 1.21035C9.59678 1.20243 9.54368 1.21144 9.49728 1.23606L8.27609 1.88805C7.97684 1.72032 7.65994 1.58617 7.33116 1.48805L6.93077 0.16406C6.91384 0.115267 6.88184 0.0731004 6.83939 0.0436298C6.79694 0.0141591 6.74622 -0.00109569 6.69454 6.12672e-05H5.34122C5.28923 0.000303095 5.23867 0.017115 5.1969 0.0480503C5.15513 0.0789856 5.12433 0.12243 5.10899 0.17206L4.7086 1.49205C4.37708 1.58964 4.05747 1.7238 3.75567 1.89205L2.5545 1.24406C2.5081 1.21944 2.45499 1.21043 2.40306 1.21835C2.35113 1.22628 2.30314 1.25072 2.26621 1.28805L1.29326 2.23605C1.25589 2.27294 1.23143 2.32088 1.22349 2.37276C1.21556 2.42464 1.22458 2.4777 1.24922 2.52405L1.89785 3.72404C1.72971 4.02428 1.59543 4.34222 1.49746 4.67204L0.172168 5.07204C0.122489 5.08736 0.0790019 5.11813 0.0480362 5.15986C0.0170705 5.20158 0.000242066 5.25209 0 5.30403V6.65603C0.000242066 6.70797 0.0170705 6.75848 0.0480362 6.80021C0.0790019 6.84193 0.122489 6.8727 0.172168 6.88803L1.50547 7.28802C1.60451 7.61235 1.73877 7.92487 1.90586 8.22002L1.24922 9.47601C1.22458 9.52237 1.21556 9.57542 1.22349 9.6273C1.23143 9.67918 1.25589 9.72712 1.29326 9.76401L2.2502 10.72C2.28712 10.7573 2.33511 10.7818 2.38704 10.7897C2.43898 10.7976 2.49208 10.7886 2.53848 10.764L3.77569 10.104C4.06836 10.2618 4.37708 10.3878 4.69659 10.48L5.09698 11.828C5.11232 11.8776 5.14312 11.9211 5.18489 11.952C5.22665 11.9829 5.27721 11.9998 5.32921 12H6.68253C6.73452 11.9998 6.78508 11.9829 6.82685 11.952C6.86862 11.9211 6.89942 11.8776 6.91476 11.828L7.31515 10.476C7.63193 10.3834 7.93794 10.2573 8.22804 10.1L9.47326 10.764C9.51966 10.7886 9.57276 10.7976 9.62469 10.7897C9.67662 10.7818 9.72461 10.7573 9.76154 10.72L10.7185 9.76401C10.7558 9.72712 10.7803 9.67918 10.7882 9.6273C10.7962 9.57542 10.7872 9.52237 10.7625 9.47601L10.0979 8.23602C10.257 7.9451 10.3845 7.63802 10.4782 7.32002L11.8276 6.92003C11.8772 6.9047 11.9207 6.87393 11.9517 6.83221C11.9827 6.79048 11.9995 6.73997 11.9997 6.68803V5.32403C12.0021 5.2743 11.9892 5.22502 11.9627 5.18284C11.9362 5.14065 11.8974 5.10757 11.8516 5.08804ZM6.01788 8.20002C5.58234 8.20002 5.15657 8.07099 4.79443 7.82925C4.43229 7.58752 4.15003 7.24393 3.98336 6.84193C3.81668 6.43993 3.77307 5.99759 3.85804 5.57083C3.94301 5.14408 4.15275 4.75208 4.46072 4.4444C4.7687 4.13673 5.16109 3.9272 5.58826 3.84231C6.01544 3.75743 6.45822 3.80099 6.86061 3.96751C7.263 4.13402 7.60693 4.416 7.8489 4.77778C8.09088 5.13957 8.22003 5.56491 8.22003 6.00003C8.22003 6.5835 7.98802 7.14308 7.57504 7.55566C7.16205 7.96824 6.60193 8.20002 6.01788 8.20002Z" fill="white"/>
</svg>
