<svg width="20" height="20" viewBox="0 0 20 20" fill="none" xmlns="http://www.w3.org/2000/svg">
<path fill-rule="evenodd" clip-rule="evenodd" d="M10 19C14.9705 19 19 14.9705 19 9.99998C19 5.02949 14.9705 0.999998 10 0.999998C5.0295 0.999998 1 5.02949 1 9.99998C1 14.9705 5.0295 19 10 19ZM10 20C15.523 20 20 15.523 20 9.99998C20 4.47699 15.523 0 10 0C4.477 0 0 4.47699 0 9.99998C0 15.523 4.477 20 10 20Z" fill="white"/>
<path d="M4 15.815C4 15.2985 4.386 14.862 4.9 14.805C8.7575 14.378 11.26 14.4165 15.109 14.8145C15.3012 14.8347 15.4834 14.9104 15.6333 15.0324C15.7831 15.1544 15.8942 15.3174 15.953 15.5015C16.0117 15.6856 16.0156 15.8829 15.9641 16.0692C15.9126 16.2554 15.808 16.4227 15.663 16.5505C11.1205 20.51 8.5245 20.4555 4.32 16.5545C4.115 16.3645 4 16.0945 4 15.8155V15.815Z" fill="white"/>
<path fill-rule="evenodd" clip-rule="evenodd" d="M15.0575 15.3114C11.239 14.9164 8.7725 14.8794 4.9545 15.3019C4.82882 15.3166 4.71296 15.3771 4.6291 15.4718C4.54524 15.5666 4.49928 15.6889 4.5 15.8154C4.5 15.9584 4.5595 16.0939 4.66 16.1879C6.744 18.1209 8.323 18.9944 9.8665 18.9999C11.4155 19.0054 13.0795 18.1389 15.3345 16.1739C15.4061 16.1102 15.4577 16.027 15.483 15.9345C15.5082 15.8419 15.506 15.7441 15.4767 15.6528C15.4473 15.5615 15.3921 15.4806 15.3177 15.4201C15.2433 15.3596 15.1529 15.322 15.0575 15.3119V15.3114ZM4.845 14.308C8.743 13.8765 11.282 13.9155 15.161 14.3169C15.4502 14.3471 15.7242 14.461 15.9497 14.6445C16.1751 14.8281 16.3422 15.0734 16.4304 15.3504C16.5185 15.6274 16.524 15.9241 16.4462 16.2042C16.3683 16.4843 16.2105 16.7357 15.992 16.9274C13.7045 18.9214 11.7995 20.0074 9.8635 19.9999C7.922 19.9929 6.101 18.8884 3.9805 16.9209C3.82868 16.7795 3.70765 16.6083 3.62497 16.418C3.5423 16.2277 3.49976 16.0224 3.5 15.8149C3.49927 15.4422 3.6361 15.0822 3.88429 14.804C4.13247 14.5259 4.47455 14.3491 4.845 14.3075V14.308Z" fill="white"/>
<path d="M14 7.99996C14 9.06083 13.5786 10.0782 12.8284 10.8284C12.0783 11.5785 11.0609 12 10 12C8.93913 12 7.92172 11.5785 7.17157 10.8284C6.42143 10.0782 6 9.06083 6 7.99996C6 6.9391 6.42143 5.92168 7.17157 5.17154C7.92172 4.4214 8.93913 3.99997 10 3.99997C11.0609 3.99997 12.0783 4.4214 12.8284 5.17154C13.5786 5.92168 14 6.9391 14 7.99996Z" fill="white"/>
<path fill-rule="evenodd" clip-rule="evenodd" d="M10 11C10.7956 11 11.5587 10.6839 12.1213 10.1213C12.6839 9.55867 13 8.79561 13 7.99996C13 7.20431 12.6839 6.44125 12.1213 5.87865C11.5587 5.31604 10.7956 4.99997 10 4.99997C9.20435 4.99997 8.44129 5.31604 7.87868 5.87865C7.31607 6.44125 7 7.20431 7 7.99996C7 8.79561 7.31607 9.55867 7.87868 10.1213C8.44129 10.6839 9.20435 11 10 11V11ZM10 12C11.0609 12 12.0783 11.5785 12.8284 10.8284C13.5786 10.0782 14 9.06083 14 7.99996C14 6.9391 13.5786 5.92168 12.8284 5.17154C12.0783 4.4214 11.0609 3.99997 10 3.99997C8.93913 3.99997 7.92172 4.4214 7.17157 5.17154C6.42143 5.92168 6 6.9391 6 7.99996C6 9.06083 6.42143 10.0782 7.17157 10.8284C7.92172 11.5785 8.93913 12 10 12V12Z" fill="white"/>
</svg>
